<?xml version="1.0" encoding="utf-8"?>
<!-- Generator: Adobe Illustrator 21.0.2, SVG Export Plug-In . SVG Version: 6.00 Build 0)  -->
<svg version="1.1" id="Layer_1" xmlns="http://www.w3.org/2000/svg" xmlns:xlink="http://www.w3.org/1999/xlink" x="0px" y="0px"
	 viewBox="0 0 1000 1000" style="enable-background:new 0 0 1000 1000;" xml:space="preserve">
<style type="text/css">
	.st0{fill:#F08F31;}
	.st1{fill:#2B83C6;}
</style>
<g>
	<path class="st0" d="M339.3,501.7c7,31.2,12.5,62.4,17.3,93.8c1.2,7.8,2.4,15.7,3.4,23.6c1.1,7.9,2.1,15.8,3.1,23.7
		c0.9,7.9,1.8,15.8,2.6,23.9l0.6,6c0.2,2,0.3,4.1,0.5,6.1c0.3,4.1,0.6,8.1,0.8,12.6l0.1,3.3l0.1,1.6l0,0.8c0,0.3,0,0.5,0,0.9
		c-0.1,2.7-0.2,5.4-0.4,8.1c0,1.3-0.3,2.8-0.4,4.2c-0.1,0.7-0.2,1.4-0.3,2l-0.3,1.9c-0.2,1.3-0.5,2.5-0.7,3.8
		c-0.2,1.3-0.5,2.4-0.8,3.6c-0.5,2.4-1.1,4.7-1.7,7c-0.6,2.2-1.2,4.5-1.9,6.7c-1.3,4.4-2.8,8.7-4.4,13c-3.1,8.5-6.7,16.7-10.8,24.8
		c-4,8.1-8.5,16-13.4,23.6c-9.9,15.4-21.7,30-35.7,43.1c-7,6.6-14.6,12.7-22.8,18.4c-8.1,5.7-16.8,10.8-26,15.2l-0.4,0.2
		c-0.2,0.1-0.6,0.3-0.9,0.4l-2.1,0.8c-0.7,0.3-1.4,0.5-2.1,0.8c-0.8,0.2-1.5,0.5-2.3,0.7s-1.5,0.4-2.3,0.7c-0.8,0.2-1.6,0.4-2.5,0.6
		c-1.7,0.3-3.3,0.7-5.1,0.9c-6.9,0.9-14.5,0.5-21.4-1.1c-6.9-1.6-12.9-4.3-17.8-7.1c-4.9-2.9-8.8-5.9-12.2-8.9
		c-6.6-6-11-11.6-14.7-16.8c-3.7-5.2-6.6-10.1-9.2-14.8c-5.1-9.4-8.9-18.3-12.3-26.9c-3.3-8.7-6.2-17.1-8.8-25.4
		c-5.1-16.7-9.2-33.1-12.7-49.4c-1.8-8.1-3.4-16.3-4.9-24.4c-1.5-8.1-2.9-16.2-4.2-24.3c-2.6-16.2-4.7-32.3-6.7-48.4
		c-1-8.1-1.8-16.1-2.6-24.2c-0.8-8.1-1.5-16.1-2.1-24.2c-2.5-32.3-4-64.6-4.2-97.2c-0.1-16.3,0.2-32.7,0.9-49.3
		c0.4-8.3,0.9-16.7,1.5-25.2c0.7-8.5,1.5-17.2,2.7-26.2c0.6-4.5,1.3-9.1,2.2-14l0.7-3.7l0.9-3.9l1.8-7.9c0.3-1.3,0.7-2.6,1.1-3.9
		l1.1-3.8c0.8-2.5,1.5-5.1,2.4-7.6l2.7-7.3l1.4-3.6c0.5-1.2,1-2.4,1.5-3.5c8.2-18.8,18.3-35.8,29.7-51.1
		c11.3-15.3,23.8-28.9,37-41.3c13.1-12.5,27-23.7,41.3-34c7.2-5.1,14.5-10,22-14.6c1.9-1.2,3.7-2.3,5.6-3.5l5.7-3.3
		c1.9-1.1,3.8-2.2,5.8-3.3l5.8-3.2c15.8-8.2,31.9-15.7,50.4-21.7l7.2-2.2c2.5-0.7,5.1-1.3,7.6-2c1.3-0.3,2.8-0.6,4.2-0.9l2.1-0.4
		l1.1-0.2c0.3-0.1,0.7-0.1,1.1-0.2l4.8-0.7l2.4-0.3l0.6,0c0.4,0,0.9,0,1.3,0c0.5,0,1.3-0.2,1.9-0.2l1-0.1c0.3,0,0.6-0.1,1.1-0.2
		l2.4-0.4c1.5-0.2,3.4-0.7,5.1-1c1.7-0.3,3.7-0.8,5.6-1.2c7.7-1.7,16.1-3.5,24.8-5c8.8-1.5,17.9-2.7,27.1-3.4l7-0.4
		c1.2,0,2.3-0.1,3.5-0.1l3.5,0c2.4,0,4.7,0,7.1,0.1l7.1,0.4c1.2,0.1,2.4,0.1,3.5,0.2l3.5,0.4c2.4,0.3,4.7,0.5,7.1,0.8
		c2.3,0.4,4.7,0.8,7,1.2l3.5,0.6c1.2,0.2,2.3,0.5,3.5,0.8l6.9,1.6l1.7,0.4l1.7,0.5l3.4,1l6.7,2.1l6.5,2.5l3.2,1.3
		c1.1,0.4,2.2,0.8,3.2,1.3l6.3,2.9c4.2,1.8,8.1,4.1,12.1,6.3c15.7,8.9,29.7,19.7,42.2,31.5l4.6,4.4c1.5,1.5,3.1,2.9,4.5,4.5l8.5,9.3
		c1.4,1.5,2.7,3.2,4.1,4.8l4,4.8l3.9,4.8c1.3,1.6,2.5,3.3,3.7,5c19.6,26.6,35.1,54.9,47.2,84.5c-22.4-22.7-45.2-44.4-69.3-62.8
		c-1.5-1.2-3-2.4-4.5-3.5l-4.6-3.2l-4.6-3.2c-1.5-1.1-3-2.2-4.6-3.2l-9.3-5.9c-1.5-1-3.1-1.9-4.7-2.8l-4.7-2.7
		c-12.7-7-25.5-12.7-38.4-16.5c-12.9-3.9-25.7-5.9-38.2-6.1c-12.6-0.3-24.9,1.6-37.3,4.6c-6.2,1.6-12.5,3.6-18.9,5.8
		c-6.5,2.3-13.1,4.9-20.4,7.7l-5.7,2.1c-2,0.7-3.9,1.4-6.2,2.2l-3.3,1.1c-0.5,0.2-1.2,0.4-1.8,0.6l-1.9,0.6
		c-1.3,0.4-2.5,0.7-3.8,1.1l-4.5,1.1l-2.2,0.5c-0.2,0.1-0.4,0.2-0.5,0.2c-0.3,0.1-0.7,0.3-1,0.4l-1.4,0.6l-1.5,0.6L356,229l-3.9,1.8
		c-5.4,2.6-11,5.8-16.7,9.1c-5.7,3.3-11.4,7.1-17,10.9c-5.6,4-11.2,7.9-16.6,12.2c-5.5,4.2-10.7,8.7-15.9,13.1
		c-10.4,9-20,18.5-29,28.4c-1.1,1.2-2.3,2.4-3.3,3.7l-3.2,3.8c-2.2,2.5-4.1,5.1-6.1,7.6c-1,1.2-1.9,2.5-2.9,3.8l-2.9,3.8
		c-0.9,1.3-1.8,2.6-2.7,3.9c-0.9,1.3-1.8,2.6-2.6,3.9c-6.6,10.4-12.1,20.8-15.9,31c-0.2,0.6-0.5,1.3-0.7,1.9l-0.6,1.9
		c-0.4,1.3-0.8,2.5-1.2,3.8c-0.4,1.2-0.6,2.5-1,3.7l-0.5,1.8c-0.2,0.6-0.3,1.2-0.4,1.8c-0.2,1.2-0.4,2.4-0.7,3.6l-0.4,1.8l-0.3,2.1
		c-0.4,2.9-0.8,6-1.1,9.3c-0.7,6.5-1.2,13.5-1.6,20.6c-0.4,7.1-0.7,14.4-0.9,21.7c-0.2,7.3-0.4,14.8-0.4,22.2
		c-0.1,7.5-0.1,15-0.1,22.5c0.2,30.1,1.1,60.4,2.5,90.7c0.4,7.6,0.8,15.1,1.2,22.7l1.4,22.6c1,15.1,2.3,30.1,3.7,45
		c0.7,7.5,1.5,14.9,2.4,22.3c0.8,7.4,1.7,14.7,2.7,22c2,14.5,4.2,28.9,7.1,42.5c1.4,6.8,2.9,13.4,4.6,19.6c1.6,6.2,3.5,12,5.3,16.6
		c0.9,2.3,1.7,4.3,2.3,5.6c0.6,1.3,1,2,0.1,1.4c-0.5-0.3-1.3-0.9-2.9-1.7c-1.6-0.8-4-1.9-7-2.5c-3-0.7-6.7-0.8-9.7-0.3
		c-0.8,0.1-1.5,0.3-2.2,0.4c-0.3,0.1-0.7,0.2-1,0.3c-0.3,0.1-0.6,0.2-0.9,0.3s-0.6,0.2-0.9,0.3l-0.7,0.3c-0.2,0.1-0.5,0.2-0.7,0.3
		c-0.1,0-0.3,0.2-0.3,0.1l0.2-0.1c10.5-3.3,21-8.4,31.1-15.2c5.1-3.4,10-7.2,14.8-11.4c4.8-4.2,9.5-8.7,14-13.6
		c4.5-4.8,8.8-10,12.9-15.3c4.1-5.3,7.9-10.9,11.4-16.6c1.7-2.8,3.5-5.7,5-8.6c1.6-2.9,3-5.7,4.3-8.5c0.3-0.7,0.6-1.4,0.9-2
		c0.3-0.6,0.6-1.3,0.8-1.9l0.4-0.9c0.1-0.3,0.3-0.6,0.3-0.9c0.2-0.5,0.5-1,0.6-1.6c0.3-1.2,0.7-2.4,1-3.6c0.1-0.1,0.1-0.4,0.1-0.6
		l0.1-0.6l0.2-1.3l0.5-2.6c0.7-3.4,1.2-7.2,1.8-10.9c0.6-3.7,1.1-7.5,1.6-11.3c1.1-7.6,2-15.4,3.1-23.1l5.9-46.8
		C329.9,564.6,334,533.2,339.3,501.7z"/>
	<path class="st1" d="M620.4,348.2c2,1.1,4,2.2,6,3.3c2,1.1,3.9,2.2,5.9,3.2c3.9,2.1,7.8,4.1,11.7,6.1c7.8,3.9,15.5,7.5,23.2,10.4
		c7.6,3,15.2,5.3,22,6.5c3.4,0.5,6.6,0.8,9.4,0.6c0.7,0,1.4-0.1,2-0.2l1-0.1l1.1-0.2c0.7-0.1,1.4-0.2,2.2-0.3
		c0.8-0.1,1.5-0.2,2.4-0.4c6.6-1.1,14.4-2.7,22.5-4.3c4.1-0.9,8.4-1.7,12.7-2.5l6.7-1.2c2.3-0.4,4.5-0.7,6.9-1.1
		c4.6-0.7,9.5-1.3,14.4-1.7c5-0.4,10-0.7,15.4-0.8c5.3-0.1,10.8,0.1,16.4,0.6c2.9,0.3,5.7,0.5,8.7,1c1.5,0.2,2.9,0.4,4.4,0.7
		l4.5,0.9c12,2.5,24.9,7.3,37,14.6c1.5,0.9,3,1.9,4.5,2.9c1.5,1,3,2,4.4,3.1c1.4,1.1,2.8,2.2,4.2,3.3l0.5,0.4l0.3,0.2
		c0.1,0,0.2,0.1,0.4,0.4c0.8,0.7,1.5,1.4,2.3,2.2l1.1,1.1l1,1.1c0.7,0.7,1.3,1.5,1.9,2.2c4.8,5.9,7.8,11.2,10.1,16
		c2.3,4.8,3.8,9.1,5,13.1c2.4,7.9,3.6,14.6,4.4,20.9c0.8,6.3,1.3,12.1,1.5,17.7c0.4,11.2,0,21.5-0.8,31.6c-1.7,20.1-5,39-9.3,57.5
		c-4.3,18.5-9.7,36.5-16,54.2c-6.3,17.7-13.5,35-21.8,52c-8.3,17-17.7,33.6-28.4,49.8c-10.7,16.2-22.8,31.9-37,46.7
		c-14.3,14.7-30.6,28.9-51.1,40.1c-10.2,5.6-21.5,10.3-33.8,13.4c-6.2,1.5-12.6,2.6-19.1,3.1c-3.3,0.3-6.6,0.4-9.9,0.3
		c-1.6,0-3.3-0.1-4.9-0.2l-3.3-0.4l-6.6-0.8l-6.6-0.8c-4.4-0.6-8.7-1.1-13.1-1.8c-4.4-0.7-8.7-1.3-13.1-2c-4.4-0.8-8.8-1.5-13.2-2.3
		c-17.6-3.2-35.3-7-53-12.6c-8.9-2.9-17.8-6.1-26.5-10.8l-3.2-1.8c-1-0.6-2.1-1.4-3.1-2l-1.5-1.1c-0.5-0.3-1-0.7-1.5-1.1
		c-1-0.8-1.9-1.6-2.8-2.4c-0.9-0.8-1.7-1.7-2.6-2.6l-1.2-1.3l-1.1-1.4c-1.5-1.9-2.7-3.8-3.8-5.8c1.1,0.4,2.2,0.7,3.2,1.1
		c1,0.4,2.2,0.6,3.2,0.9l1.5,0.4l1.6,0.3c1.1,0.2,2,0.4,3.1,0.5l3.1,0.2c0.5,0.1,1,0.1,1.5,0.1l1.5,0c1,0,2,0,3,0l3.1-0.2
		c8.1-0.7,16.3-2.2,24.6-3.8c16.6-3.4,33.3-7.3,50.1-11c4.2-1,8.4-1.8,12.6-2.8l12.7-2.7c4.2-0.9,8.4-1.7,12.7-2.6l6.3-1.3l6.3-1.2
		l3.1-0.6c0.5-0.2,1-0.4,1.5-0.6c1-0.4,2-0.9,2.9-1.4c1.9-1,3.9-2.1,5.8-3.4c3.9-2.6,7.9-6,12-9.9c4.1-4,8.2-8.6,12.3-13.7
		c4.1-5.1,8.1-10.6,11.9-16.4c7.8-11.7,15-24.5,21.9-37.9c13.7-26.9,25.8-55.9,36.3-85.3c5.3-14.7,10.1-29.6,14.5-44.4
		c4.3-14.8,8.1-29.6,10.9-43.6c1.4-7,2.5-13.8,3.3-19.8c0.4-3,0.6-5.8,0.8-8.1c0.2-2.3,0.2-4.1,0.5-4.6c0.1-0.2,0.4,0,0.9,0.8
		c0.6,0.9,1.5,2.4,3.7,4.9c0.3,0.3,0.6,0.7,0.9,1l1,1c0.4,0.4,0.8,0.7,1.2,1c0.1,0.1,0.2,0.1,0.1,0.1l0-0.1l-0.1-0.1
		c-0.2-0.3-0.4-0.6-0.6-0.9c-0.2-0.4-0.4-0.6-0.7-0.9c-0.2-0.3-0.4-0.7-0.7-1c-0.3-0.3-0.5-0.6-0.8-0.9c-0.1-0.2-0.3-0.3-0.4-0.5
		l-0.5-0.5l-1-1c-0.4-0.3-0.8-0.6-1.1-0.9l-0.6-0.5c-0.2-0.1-0.4-0.3-0.7-0.5c-0.4-0.3-0.9-0.6-1.3-1l-1.5-0.9l-0.8-0.5l-0.8-0.4
		l-1.7-0.9l-1.8-0.8c-1.2-0.6-2.6-1.1-3.9-1.7c-2.8-1.1-5.8-2.1-9.1-3c-6.5-1.9-13.9-3.4-21.8-4.7c-3.9-0.7-8-1.3-12.2-2
		c-4.2-0.6-8.6-1.3-13.1-2c-9-1.4-18.5-2.9-29-5.7c-1.3-0.3-2.7-0.8-4-1.1c-1.3-0.4-2.7-0.8-4.1-1.3l-2.1-0.7l-2.2-0.8
		c-1.5-0.6-2.9-1.2-4.2-1.8c-5.5-2.6-10.3-5.5-14.6-8.7c-4.3-3.2-8.2-6.5-11.8-10c-3.6-3.5-6.9-7.1-10-10.7
		c-6.1-7.4-11.4-15-16.2-22.9c-2.3-4-4.6-8-6.6-12.1c-1-2.1-2-4.1-2.9-6.2C622.1,352.4,621.2,350.3,620.4,348.2z"/>
</g>
</svg>
